<svg width="1298" height="815" viewBox="0 0 1298 815" fill="none" xmlns="http://www.w3.org/2000/svg">
<path d="M1297.79 814.154H854.969L727.01 686.22V814.154H499.442C530.01 795.603 556.44 770.944 577.035 741.847H654.703V511.636L884.914 741.847H1123.23L787.499 406.117L1121.31 72.307H883.02L654.704 300.623V72.307H221.609C139.278 72.307 72.3069 139.278 72.3069 221.609C72.3069 303.94 139.278 370.911 221.609 370.911H365.475C487.674 370.911 587.109 470.346 587.109 592.545C587.109 714.744 487.674 814.154 365.475 814.154H0V741.847H365.475C447.806 741.847 514.802 674.875 514.802 592.545C514.802 510.215 447.806 443.218 365.475 443.218H221.609C99.4089 443.218 0 343.808 0 221.609C0 99.41 99.4089 0 221.609 0H727.011V126.038L853.075 0H1295.87L889.752 406.117L1297.79 814.154Z" fill="black"/>
</svg>
